<svg width="135" height="135" viewBox="0 0 135 135" fill="none" xmlns="http://www.w3.org/2000/svg">
<path d="M0 42.6316C0 19.0868 19.0868 0 42.6316 0H92.3684C115.913 0 135 19.0868 135 42.6316V92.3684C135 115.913 115.913 135 92.3684 135H42.6316C19.0868 135 0 115.913 0 92.3684V42.6316Z" fill="black"/>
<path d="M108 19.1841C108 24.5472 103.652 28.8949 98.2894 28.8949C92.9263 28.8949 88.5787 24.5472 88.5787 19.1841C88.5787 13.8211 92.9263 9.47342 98.2894 9.47342C103.652 9.47342 108 13.8211 108 19.1841Z" fill="black" stroke="white" stroke-width="1.42105"/>
<path d="M51 22C51 25.3137 48.3137 28 45 28C41.6863 28 39 25.3137 39 22C39 18.6863 41.6863 16 45 16C48.3137 16 51 18.6863 51 22Z" fill="black" stroke="white" stroke-width="1.42105"/>
<path d="M78.4215 66.7108C78.4215 72.0738 74.0739 76.4215 68.7108 76.4215C63.3477 76.4215 59.0001 72.0738 59.0001 66.7108C59.0001 61.3477 63.3477 57 68.7108 57C74.0739 57 78.4215 61.3477 78.4215 66.7108Z" fill="black" stroke="white" stroke-width="1.42105"/>
<path d="M97 112.5C97 116.09 94.0899 119 90.5 119C86.9102 119 84 116.09 84 112.5C84 108.91 86.9102 106 90.5 106C94.0899 106 97 108.91 97 112.5Z" fill="black" stroke="white" stroke-width="1.42105"/>
<path d="M98.2097 13.1558C101.464 13.1559 104.102 15.7939 104.102 19.0483C104.102 22.3026 101.464 24.9408 98.2097 24.9409C94.9553 24.9409 92.3173 22.3027 92.3171 19.0483C92.3171 15.7939 94.9552 13.1558 98.2097 13.1558Z" fill="white" stroke="black" stroke-width="1.42105"/>
<circle cx="37.6578" cy="115.816" r="10.6579" transform="rotate(180 37.6578 115.816)" fill="black" stroke="white" stroke-width="1.42105"/>
<path d="M31.2631 116.024C31.2631 112.377 34.2195 109.421 37.8664 109.421C41.5133 109.421 44.4697 112.377 44.4697 116.024C44.4697 119.671 41.5133 122.628 37.8664 122.628C34.2195 122.628 31.2631 119.671 31.2631 116.024Z" fill="white"/>
<circle cx="37.7751" cy="51.3991" r="5.57339" fill="white"/>
<circle cx="69" cy="67" r="4" fill="white"/>
<path d="M48.6448 22C48.6448 23.933 47.0778 25.5 45.1448 25.5C43.2118 25.5 41.6448 23.933 41.6448 22C41.6448 20.067 43.2118 18.5 45.1448 18.5C47.0778 18.5 48.6448 20.067 48.6448 22Z" fill="white"/>
<path d="M103.417 84.2201C103.417 87.2982 100.922 89.7935 97.8439 89.7935C94.7658 89.7935 92.2705 87.2982 92.2705 84.2201C92.2705 81.142 94.7658 78.6467 97.8439 78.6467C100.922 78.6467 103.417 81.142 103.417 84.2201Z" fill="white"/>
<circle cx="110.975" cy="27.1326" r="1.55372" fill="white"/>
<path d="M33.1255 41.2104C33.1255 42.0685 32.4299 42.7641 31.5718 42.7641C30.7137 42.7641 30.0181 42.0685 30.0181 41.2104C30.0181 40.3523 30.7137 39.6567 31.5718 39.6567C32.4299 39.6567 33.1255 40.3523 33.1255 41.2104Z" fill="white"/>
<circle cx="17.6877" cy="103.772" r="1.55372" fill="white"/>
<circle cx="90.5" cy="112.5" r="3.5" fill="white"/>
<path d="M50.9737 21.0397L88.3419 19.4588" stroke="white" stroke-width="2.84211"/>
<line x1="43.3827" y1="27.3278" x2="38.3302" y2="48.6436" stroke="white" stroke-width="2.84211"/>
<line x1="41.2451" y1="53.9786" x2="60.5843" y2="62.7047" stroke="white" stroke-width="2.84211"/>
<line x1="76.7259" y1="71.7783" x2="94.6252" y2="82.4133" stroke="white" stroke-width="2.84211"/>
<line x1="98.0132" y1="87.0157" x2="93.3816" y2="106.331" stroke="white" stroke-width="2.84211"/>
<line x1="48.4359" y1="115.465" x2="83.9246" y2="113.581" stroke="white" stroke-width="2.84211"/>
</svg>
