<svg width="331" height="100" viewBox="0 0 331 100" fill="none" xmlns="http://www.w3.org/2000/svg">
<path d="M121.413 21.7935C121.413 23.1341 121.739 24.3297 122.391 25.3804C123.08 26.3949 123.913 27.2826 124.891 28.0435C125.87 28.7681 127.21 29.6739 128.913 30.7609C130.761 31.9203 132.21 32.9167 133.261 33.75C134.348 34.5833 135.272 35.6159 136.033 36.8478C136.793 38.0435 137.174 39.4565 137.174 41.087C137.174 42.9348 136.685 44.5833 135.707 46.0326C134.764 47.4819 133.406 48.6232 131.63 49.4565C129.891 50.2536 127.899 50.6522 125.652 50.6522C124.13 50.6522 122.554 50.4529 120.924 50.0543C119.33 49.6558 118.116 49.1667 117.283 48.587C116.957 48.3696 116.775 48.0254 116.739 47.5543L116.413 39.3478V39.2935C116.413 39.1486 116.504 39.0761 116.685 39.0761C116.866 39.0399 116.975 39.0942 117.011 39.2391C118.207 42.2101 119.565 44.6558 121.087 46.5761C122.645 48.4964 124.601 49.4565 126.957 49.4565C128.551 49.4565 129.873 49.0399 130.924 48.2065C131.975 47.337 132.5 45.9058 132.5 43.913C132.5 42.3188 132.138 40.9239 131.413 39.7283C130.725 38.5326 129.855 37.5362 128.804 36.7391C127.79 35.942 126.395 34.9638 124.62 33.8043C122.88 32.6812 121.522 31.7391 120.543 30.9783C119.565 30.1812 118.732 29.221 118.043 28.0978C117.355 26.9384 117.011 25.5978 117.011 24.0761C117.011 22.192 117.536 20.5978 118.587 19.2935C119.638 17.9891 120.996 17.029 122.663 16.413C124.366 15.7609 126.141 15.4348 127.989 15.4348C129.185 15.4348 130.399 15.5616 131.63 15.8152C132.862 16.0326 133.913 16.3225 134.783 16.6848C135.326 16.9022 135.598 17.2464 135.598 17.7174L135.707 25.0543C135.707 25.1993 135.616 25.2899 135.435 25.3261C135.29 25.3623 135.181 25.3261 135.109 25.2174C134.384 23.0072 133.406 21.0145 132.174 19.2391C130.978 17.4275 129.167 16.5217 126.739 16.5217C125.109 16.5217 123.804 17.0109 122.826 17.9891C121.884 18.9312 121.413 20.1993 121.413 21.7935ZM150.48 35.3261H165.698L166.078 36.6848H149.774L150.48 35.3261ZM178.687 49.3478C178.832 49.3478 178.904 49.4565 178.904 49.6739C178.904 49.8913 178.832 50 178.687 50C177.998 50 176.893 49.9638 175.372 49.8913C173.85 49.8188 172.745 49.7826 172.056 49.7826C171.151 49.7826 170.082 49.8188 168.85 49.8913C167.618 49.9638 166.658 50 165.969 50C165.824 50 165.752 49.8913 165.752 49.6739C165.752 49.4565 165.824 49.3478 165.969 49.3478C167.056 49.3478 167.835 49.2391 168.306 49.0217C168.777 48.7681 169.013 48.3696 169.013 47.8261C169.013 47.2826 168.705 46.3587 168.089 45.0543L156.73 21.9565L158.958 18.3152L148.198 42.5543C147.727 43.6413 147.491 44.6196 147.491 45.4891C147.491 46.7572 147.944 47.7174 148.85 48.3696C149.756 49.0217 151.024 49.3478 152.654 49.3478C152.835 49.3478 152.926 49.4565 152.926 49.6739C152.926 49.8913 152.835 50 152.654 50C152.002 50 151.06 49.9638 149.828 49.8913C148.451 49.8188 147.256 49.7826 146.241 49.7826C145.263 49.7826 144.122 49.8188 142.817 49.8913C141.658 49.9638 140.698 50 139.937 50C139.756 50 139.665 49.8913 139.665 49.6739C139.665 49.4565 139.756 49.3478 139.937 49.3478C140.951 49.3478 141.803 49.1486 142.491 48.75C143.179 48.3514 143.85 47.6449 144.502 46.6304C145.154 45.5797 145.933 44.0399 146.839 42.0109L158.524 15.7065C158.596 15.5978 158.759 15.5435 159.013 15.5435C159.266 15.5435 159.411 15.5978 159.448 15.7065L172.763 42.5543C173.995 45.163 175.027 46.9565 175.861 47.9348C176.73 48.8768 177.672 49.3478 178.687 49.3478ZM207.922 50C207.053 50 205.441 48.4783 203.086 45.4348C200.767 42.3913 197.941 38.1522 194.607 32.7174L198.955 31.413C201.999 35.942 204.535 39.4928 206.564 42.0652C208.629 44.6014 210.459 46.4493 212.053 47.6087C213.647 48.7681 215.187 49.3478 216.672 49.3478C216.745 49.3478 216.781 49.4565 216.781 49.6739C216.781 49.8913 216.745 50 216.672 50H207.922ZM195.586 15.8696C198.701 15.8696 201.129 16.5036 202.868 17.7717C204.607 19.0036 205.477 20.7065 205.477 22.8804C205.477 24.9094 204.897 26.7391 203.738 28.3696C202.578 30 201.038 31.2862 199.118 32.2283C197.234 33.1341 195.241 33.587 193.14 33.587C192.379 33.587 191.455 33.5507 190.368 33.4783V45.5978C190.368 46.721 190.459 47.5362 190.64 48.0435C190.821 48.5507 191.183 48.8949 191.727 49.0761C192.307 49.2572 193.23 49.3478 194.499 49.3478C194.571 49.3478 194.607 49.4565 194.607 49.6739C194.607 49.8913 194.571 50 194.499 50C193.303 50 192.361 49.9819 191.672 49.9457L187.705 49.8913L183.792 49.9457C183.104 49.9819 182.162 50 180.966 50C180.857 50 180.803 49.8913 180.803 49.6739C180.803 49.4565 180.857 49.3478 180.966 49.3478C182.198 49.3478 183.086 49.2572 183.629 49.0761C184.209 48.8949 184.607 48.5507 184.825 48.0435C185.042 47.5 185.151 46.6848 185.151 45.5978V20.4348C185.151 19.3478 185.042 18.5507 184.825 18.0435C184.643 17.5362 184.263 17.192 183.683 17.0109C183.104 16.7935 182.216 16.6848 181.02 16.6848C180.948 16.6848 180.912 16.5761 180.912 16.3587C180.912 16.1413 180.948 16.0326 181.02 16.0326L183.846 16.087C185.441 16.1594 186.727 16.1957 187.705 16.1957C188.901 16.1957 190.205 16.1413 191.618 16.0326C192.089 15.9964 192.651 15.9601 193.303 15.9239C193.991 15.8877 194.752 15.8696 195.586 15.8696ZM200.096 24.7826C200.096 21.8478 199.589 19.8007 198.575 18.6413C197.596 17.4819 196.165 16.9022 194.281 16.9022C192.832 16.9022 191.817 17.1739 191.238 17.7174C190.658 18.2246 190.368 19.1667 190.368 20.5435V32.0109C191.238 32.1558 192.288 32.2283 193.52 32.2283C195.875 32.2283 197.56 31.6486 198.575 30.4891C199.589 29.2935 200.096 27.3913 200.096 24.7826ZM218.436 50C218.328 50 218.273 49.8913 218.273 49.6739C218.273 49.4565 218.328 49.3478 218.436 49.3478C219.668 49.3478 220.556 49.2572 221.099 49.0761C221.679 48.8949 222.059 48.5507 222.241 48.0435C222.458 47.5 222.567 46.6848 222.567 45.5978V20.4348C222.567 19.3478 222.458 18.5507 222.241 18.0435C222.059 17.5362 221.679 17.192 221.099 17.0109C220.52 16.7935 219.632 16.6848 218.436 16.6848C218.328 16.6848 218.273 16.5761 218.273 16.3587C218.273 16.1413 218.328 16.0326 218.436 16.0326H241.045C241.407 16.0326 241.588 16.1957 241.588 16.5217L241.697 23.587C241.697 23.6594 241.588 23.7138 241.371 23.75C241.19 23.75 241.081 23.6957 241.045 23.587C240.175 19.4928 237.675 17.4457 233.545 17.4457H231.317C229.976 17.4457 229.034 17.6812 228.491 18.1522C227.983 18.6232 227.73 19.4203 227.73 20.5435V45.3804C227.73 46.5761 227.947 47.4094 228.382 47.8804C228.853 48.3514 229.668 48.587 230.828 48.587H233.491C238.346 48.587 241.425 46.25 242.73 41.5761C242.73 41.5036 242.82 41.4674 243.001 41.4674C243.255 41.4674 243.382 41.5217 243.382 41.6304C243.02 44.3841 242.838 46.9022 242.838 49.1848C242.838 49.4746 242.784 49.692 242.675 49.837C242.567 49.9457 242.349 50 242.023 50H218.436ZM238.98 37.7174C238.98 34.6014 236.951 33.0435 232.893 33.0435H225.284V31.6304H232.947C236.933 31.6304 238.925 30.2899 238.925 27.6087C238.925 27.5 239.016 27.4457 239.197 27.4457C239.414 27.4457 239.523 27.5 239.523 27.6087L239.469 32.337L239.523 34.8913C239.596 36.0507 239.632 36.9928 239.632 37.7174C239.632 37.7899 239.523 37.8261 239.306 37.8261C239.088 37.8261 238.98 37.7899 238.98 37.7174ZM252.669 17.2826L254.136 17.3913V43.4239C254.136 45.3442 254.498 46.8116 255.223 47.8261C255.984 48.8406 257.089 49.3478 258.538 49.3478C258.647 49.3478 258.701 49.4565 258.701 49.6739C258.701 49.8913 258.647 50 258.538 50C257.596 50 256.871 49.9819 256.364 49.9457L253.484 49.8913L250.277 49.9457C249.698 49.9819 248.864 50 247.777 50C247.669 50 247.614 49.8913 247.614 49.6739C247.614 49.4565 247.669 49.3478 247.777 49.3478C249.335 49.3478 250.531 48.8406 251.364 47.8261C252.234 46.8116 252.669 45.3442 252.669 43.4239V17.2826ZM280.277 50.7609C280.277 50.8696 280.187 50.942 280.006 50.9783C279.824 51.0145 279.698 50.9964 279.625 50.9239L253.484 20.4891C252.252 19.0761 251.165 18.0978 250.223 17.5543C249.281 16.9746 248.357 16.6848 247.451 16.6848C247.342 16.6848 247.288 16.5761 247.288 16.3587C247.288 16.1413 247.342 16.0326 247.451 16.0326L249.625 16.087C250.06 16.1232 250.712 16.1413 251.582 16.1413L255.06 16.087C255.495 16.0507 256.002 16.0326 256.582 16.0326C256.871 16.0326 257.089 16.1051 257.234 16.25C257.379 16.3949 257.596 16.6848 257.886 17.1196C258.502 17.9529 258.955 18.5326 259.245 18.8587L279.842 43.0978L280.277 50.7609ZM280.277 50.7609L278.81 49.1304V22.663C278.81 20.7428 278.429 19.2754 277.669 18.2609C276.944 17.2101 275.857 16.6848 274.408 16.6848C274.335 16.6848 274.299 16.5761 274.299 16.3587C274.299 16.1413 274.335 16.0326 274.408 16.0326L276.636 16.087C277.795 16.1594 278.756 16.1957 279.516 16.1957C280.205 16.1957 281.201 16.1594 282.506 16.087L284.788 16.0326C284.897 16.0326 284.951 16.1413 284.951 16.3587C284.951 16.5761 284.897 16.6848 284.788 16.6848C283.339 16.6848 282.216 17.2101 281.419 18.2609C280.658 19.2754 280.277 20.7428 280.277 22.663V50.7609ZM296.115 35.3261H311.333L311.713 36.6848H295.409L296.115 35.3261ZM324.322 49.3478C324.467 49.3478 324.539 49.4565 324.539 49.6739C324.539 49.8913 324.467 50 324.322 50C323.634 50 322.528 49.9638 321.007 49.8913C319.485 49.8188 318.38 49.7826 317.691 49.7826C316.786 49.7826 315.717 49.8188 314.485 49.8913C313.253 49.9638 312.293 50 311.605 50C311.46 50 311.387 49.8913 311.387 49.6739C311.387 49.4565 311.46 49.3478 311.605 49.3478C312.691 49.3478 313.47 49.2391 313.941 49.0217C314.413 48.7681 314.648 48.3696 314.648 47.8261C314.648 47.2826 314.34 46.3587 313.724 45.0543L302.365 21.9565L304.594 18.3152L293.833 42.5543C293.362 43.6413 293.126 44.6196 293.126 45.4891C293.126 46.7572 293.579 47.7174 294.485 48.3696C295.391 49.0217 296.659 49.3478 298.289 49.3478C298.47 49.3478 298.561 49.4565 298.561 49.6739C298.561 49.8913 298.47 50 298.289 50C297.637 50 296.695 49.9638 295.463 49.8913C294.086 49.8188 292.891 49.7826 291.876 49.7826C290.898 49.7826 289.757 49.8188 288.452 49.8913C287.293 49.9638 286.333 50 285.572 50C285.391 50 285.3 49.8913 285.3 49.6739C285.3 49.4565 285.391 49.3478 285.572 49.3478C286.586 49.3478 287.438 49.1486 288.126 48.75C288.815 48.3514 289.485 47.6449 290.137 46.6304C290.789 45.5797 291.568 44.0399 292.474 42.0109L304.159 15.7065C304.231 15.5978 304.394 15.5435 304.648 15.5435C304.902 15.5435 305.047 15.5978 305.083 15.7065L318.398 42.5543C319.63 45.163 320.663 46.9565 321.496 47.9348C322.365 48.8768 323.307 49.3478 324.322 49.3478Z" fill="white"/>
<path d="M116.337 86.4783V72.587H121.15C122.637 72.587 123.876 72.9 124.867 73.5261C125.872 74.1391 126.622 74.9739 127.117 76.0304C127.613 77.0739 127.861 78.2348 127.861 79.5131C127.861 80.9217 127.587 82.1478 127.039 83.1913C126.491 84.2348 125.715 85.0435 124.711 85.6174C123.706 86.1913 122.519 86.4783 121.15 86.4783H116.337ZM126.08 79.5131C126.08 78.4696 125.885 77.5435 125.493 76.7348C125.115 75.9261 124.561 75.2935 123.83 74.837C123.1 74.3804 122.206 74.1522 121.15 74.1522H118.098V84.9131H121.15C122.219 84.9131 123.119 84.6783 123.85 84.2087C124.58 83.7261 125.135 83.0804 125.513 82.2717C125.891 81.45 126.08 80.5304 126.08 79.5131ZM149.555 84.9131V86.4783H140.125V72.587H149.379V74.1522H141.886V78.6522H148.401V80.1196H141.886V84.9131H149.555ZM169.912 75.5022C169.756 75.3196 169.547 75.1435 169.286 74.9739C169.025 74.8044 168.732 74.6544 168.406 74.5239C168.079 74.3804 167.721 74.2696 167.329 74.1913C166.951 74.1 166.553 74.0544 166.136 74.0544C165.066 74.0544 164.277 74.2565 163.769 74.6609C163.26 75.0652 163.006 75.6196 163.006 76.3239C163.006 76.8196 163.136 77.2109 163.397 77.4978C163.658 77.7848 164.056 78.0196 164.59 78.2022C165.138 78.3848 165.829 78.5739 166.664 78.7696C167.629 78.9783 168.464 79.2326 169.169 79.5326C169.873 79.8326 170.414 80.237 170.793 80.7457C171.171 81.2413 171.36 81.9065 171.36 82.7413C171.36 83.4065 171.229 83.987 170.969 84.4826C170.721 84.9652 170.369 85.3696 169.912 85.6957C169.456 86.0087 168.921 86.2435 168.308 86.4C167.695 86.5435 167.029 86.6152 166.312 86.6152C165.608 86.6152 164.916 86.5435 164.238 86.4C163.573 86.2435 162.94 86.0217 162.34 85.7348C161.74 85.4478 161.179 85.0891 160.658 84.6587L161.499 83.1717C161.708 83.3935 161.975 83.6152 162.301 83.837C162.64 84.0457 163.019 84.2413 163.436 84.4239C163.866 84.6065 164.329 84.7565 164.825 84.8739C165.321 84.9783 165.829 85.0304 166.351 85.0304C167.343 85.0304 168.112 84.8544 168.66 84.5022C169.208 84.137 169.482 83.6087 169.482 82.9174C169.482 82.3957 169.325 81.9783 169.012 81.6652C168.712 81.3522 168.262 81.0913 167.662 80.8826C167.062 80.6739 166.332 80.4652 165.471 80.2565C164.532 80.0217 163.743 79.7674 163.103 79.4935C162.464 79.2065 161.982 78.8348 161.656 78.3783C161.343 77.9217 161.186 77.3283 161.186 76.5978C161.186 75.7109 161.401 74.9609 161.832 74.3478C162.262 73.7348 162.856 73.2717 163.612 72.9587C164.369 72.6457 165.223 72.4891 166.175 72.4891C166.801 72.4891 167.382 72.5544 167.916 72.6848C168.464 72.8152 168.973 72.9978 169.443 73.2326C169.912 73.4674 170.343 73.7478 170.734 74.0739L169.912 75.5022ZM183.459 86.4783V72.587H185.219V86.4783H183.459ZM203.9 86.5761C202.987 86.5761 202.132 86.3804 201.337 85.9891C200.554 85.5848 199.869 85.05 199.282 84.3848C198.695 83.7065 198.239 82.95 197.913 82.1152C197.587 81.2674 197.424 80.3935 197.424 79.4935C197.424 78.5544 197.587 77.6674 197.913 76.8326C198.239 75.9848 198.689 75.2348 199.263 74.5826C199.85 73.9304 200.534 73.4217 201.317 73.0565C202.113 72.6783 202.974 72.4891 203.9 72.4891C205.243 72.4891 206.352 72.7696 207.226 73.3304C208.1 73.8913 208.758 74.6218 209.202 75.5218L207.852 76.4609C207.447 75.6522 206.893 75.0522 206.189 74.6609C205.484 74.2696 204.708 74.0739 203.86 74.0739C203.156 74.0739 202.517 74.2239 201.943 74.5239C201.369 74.8239 200.874 75.2348 200.456 75.7565C200.052 76.2652 199.739 76.8457 199.517 77.4978C199.308 78.15 199.204 78.8283 199.204 79.5326C199.204 80.2761 199.321 80.9804 199.556 81.6457C199.804 82.2978 200.15 82.8783 200.593 83.387C201.037 83.8826 201.552 84.2739 202.139 84.5609C202.726 84.8478 203.358 84.9913 204.037 84.9913C204.832 84.9913 205.589 84.7891 206.306 84.3848C207.024 83.9804 207.702 83.3609 208.341 82.5261V84.3457C207.089 85.8326 205.608 86.5761 203.9 86.5761ZM208.126 80.8826H205.132V79.5522H209.613V86.4783H208.126V80.8826ZM223.834 75.8348V86.4783H222.073V72.587H223.56L232.051 83.4457V72.6065H233.812V86.4783H232.208L223.834 75.8348Z" fill="white"/>
<line opacity="0.5" x1="116.304" y1="62.3641" x2="330.978" y2="62.3641" stroke="white" stroke-width="0.815217"/>
<line opacity="0.5" x1="95.1089" y1="7.60864" x2="95.1089" y2="94.5652" stroke="white" stroke-width="1.08696"/>
<path d="M3.26074 38.3867C3.26074 25.5907 13.634 15.2174 26.4301 15.2174H53.461C66.257 15.2174 76.6303 25.5907 76.6303 38.3867V65.4176C76.6303 78.2137 66.257 88.587 53.461 88.587H26.4301C13.634 88.587 3.26074 78.2137 3.26074 65.4176V38.3867Z" fill="white"/>
<path d="M61.9565 25.6436C61.9565 28.5583 59.5937 30.9211 56.679 30.9211C53.7643 30.9211 51.4014 28.5583 51.4014 25.6436C51.4014 22.7288 53.7643 20.366 56.679 20.366C59.5937 20.366 61.9565 22.7288 61.9565 25.6436Z" fill="white" stroke="black" stroke-width="0.772311"/>
<path d="M30.9778 27.1739C30.9778 28.9749 29.5179 30.4348 27.7169 30.4348C25.916 30.4348 24.4561 28.9749 24.4561 27.1739C24.4561 25.373 25.916 23.9131 27.7169 23.9131C29.5179 23.9131 30.9778 25.373 30.9778 27.1739Z" fill="white" stroke="black" stroke-width="0.772311"/>
<path d="M45.8804 51.4733C45.8804 54.388 43.5175 56.7508 40.6028 56.7508C37.6881 56.7508 35.3252 54.388 35.3252 51.4733C35.3252 48.5585 37.6881 46.1957 40.6028 46.1957C43.5175 46.1957 45.8804 48.5585 45.8804 51.4733Z" fill="white" stroke="black" stroke-width="0.772311"/>
<path d="M55.9773 76.3587C55.9773 78.3097 54.3957 79.8913 52.4447 79.8913C50.4937 79.8913 48.9121 78.3097 48.9121 76.3587C48.9121 74.4077 50.4937 72.8261 52.4447 72.8261C54.3957 72.8261 55.9773 74.4077 55.9773 76.3587Z" fill="white" stroke="black" stroke-width="0.772311"/>
<path d="M56.6348 22.3667C58.4035 22.3668 59.8369 23.8011 59.8369 25.5698C59.8368 27.3385 58.4034 28.7719 56.6348 28.772C54.8661 28.772 53.4317 27.3385 53.4316 25.5698C53.4316 23.8011 54.866 22.3667 56.6348 22.3667Z" fill="black" stroke="white" stroke-width="0.772311"/>
<circle cx="23.7272" cy="78.1607" r="5.79233" transform="rotate(180 23.7272 78.1607)" fill="white" stroke="black" stroke-width="0.772311"/>
<path d="M20.2522 78.274C20.2522 76.292 21.8589 74.6853 23.8409 74.6853C25.823 74.6853 27.4297 76.292 27.4297 78.274C27.4297 80.2561 25.823 81.8628 23.8409 81.8628C21.8589 81.8628 20.2522 80.2561 20.2522 78.274Z" fill="black"/>
<circle cx="23.7907" cy="43.1517" r="3.02902" fill="black"/>
<circle cx="40.7608" cy="51.6305" r="2.17391" fill="black"/>
<path d="M29.6979 27.1739C29.6979 28.2244 28.8463 29.0761 27.7958 29.0761C26.7452 29.0761 25.8936 28.2244 25.8936 27.1739C25.8936 26.1234 26.7452 25.2717 27.7958 25.2717C28.8463 25.2717 29.6979 26.1234 29.6979 27.1739Z" fill="black"/>
<path d="M59.4662 60.9892C59.4662 62.6621 58.1101 64.0182 56.4372 64.0182C54.7643 64.0182 53.4082 62.6621 53.4082 60.9892C53.4082 59.3163 54.7643 57.9602 56.4372 57.9602C58.1101 57.9602 59.4662 59.3163 59.4662 60.9892Z" fill="black"/>
<circle cx="63.5729" cy="29.9634" r="0.844411" fill="black"/>
<path d="M21.264 37.6144C21.264 38.0808 20.886 38.4588 20.4196 38.4588C19.9532 38.4588 19.5752 38.0808 19.5752 37.6144C19.5752 37.1481 19.9532 36.77 20.4196 36.77C20.886 36.77 21.264 37.1481 21.264 37.6144Z" fill="black"/>
<circle cx="12.8737" cy="71.6153" r="0.844411" fill="black"/>
<circle cx="52.4451" cy="76.3587" r="1.90217" fill="black"/>
<path d="M30.964 26.652L51.2728 25.7929" stroke="black" stroke-width="1.54462"/>
<line x1="26.8384" y1="30.0695" x2="24.0925" y2="41.6542" stroke="black" stroke-width="1.54462"/>
<line x1="25.677" y1="44.5536" x2="36.1875" y2="49.296" stroke="black" stroke-width="1.54462"/>
<line x1="44.9599" y1="54.2274" x2="54.6878" y2="60.0073" stroke="black" stroke-width="1.54462"/>
<line x1="56.5293" y1="62.5085" x2="54.0122" y2="73.0061" stroke="black" stroke-width="1.54462"/>
<line x1="29.585" y1="77.97" x2="48.8723" y2="76.9462" stroke="black" stroke-width="1.54462"/>
</svg>
