<svg width="334" height="101" viewBox="0 0 334 101" fill="none" xmlns="http://www.w3.org/2000/svg">
<path d="M129.98 55.5484C127.421 55.5484 125.117 55.2377 123.07 54.6161C121.022 53.958 119.066 52.8245 117.202 51.2158C116.726 50.8136 116.361 50.3565 116.105 49.8447C115.849 49.3328 115.721 48.8209 115.721 48.309C115.721 47.4681 116.013 46.7368 116.598 46.1153C117.22 45.4572 117.988 45.1281 118.902 45.1281C119.596 45.1281 120.218 45.3475 120.766 45.7862C122.156 46.9197 123.527 47.7789 124.88 48.3639C126.269 48.9489 127.969 49.2414 129.98 49.2414C131.333 49.2414 132.576 49.0403 133.71 48.6381C134.843 48.1993 135.757 47.6326 136.452 46.9379C137.146 46.2067 137.494 45.384 137.494 44.47C137.494 43.3731 137.165 42.4407 136.507 41.6729C135.848 40.9051 134.843 40.2653 133.49 39.7534C132.137 39.2049 130.419 38.7845 128.335 38.492C126.36 38.1995 124.624 37.7607 123.125 37.1757C121.626 36.5541 120.364 35.7863 119.34 34.8723C118.353 33.9216 117.604 32.8248 117.092 31.5816C116.58 30.3019 116.324 28.876 116.324 27.3038C116.324 24.9272 116.927 22.898 118.134 21.2161C119.377 19.5342 121.041 18.2545 123.125 17.377C125.209 16.4995 127.512 16.0608 130.035 16.0608C132.412 16.0608 134.605 16.4264 136.616 17.1577C138.664 17.8524 140.327 18.7481 141.607 19.845C142.667 20.686 143.198 21.6549 143.198 22.7518C143.198 23.5561 142.887 24.2874 142.265 24.9455C141.644 25.6036 140.912 25.9327 140.071 25.9327C139.523 25.9327 139.029 25.7682 138.591 25.4391C138.006 24.9272 137.22 24.4519 136.232 24.0132C135.245 23.5379 134.203 23.1539 133.106 22.8614C132.009 22.5324 130.986 22.3678 130.035 22.3678C128.463 22.3678 127.128 22.5689 126.031 22.9711C124.971 23.3733 124.167 23.9218 123.618 24.6164C123.07 25.3111 122.796 26.1155 122.796 27.0296C122.796 28.1265 123.106 29.0405 123.728 29.7718C124.386 30.4665 125.318 31.0332 126.525 31.4719C127.732 31.8741 129.176 32.2398 130.858 32.5688C133.051 32.971 134.971 33.4463 136.616 33.9948C138.298 34.5432 139.688 35.2562 140.784 36.1337C141.881 36.9746 142.704 38.0532 143.252 39.3695C143.801 40.6492 144.075 42.2214 144.075 44.0861C144.075 46.4626 143.417 48.5101 142.101 50.2286C140.784 51.947 139.048 53.2633 136.891 54.1773C134.77 55.0914 132.466 55.5484 129.98 55.5484ZM164.459 25.2197L152.613 53.0805C152.357 53.7752 151.955 54.3236 151.407 54.7258C150.895 55.0914 150.328 55.2742 149.706 55.2742C148.719 55.2742 147.988 55 147.513 54.4516C147.037 53.9031 146.8 53.2267 146.8 52.4223C146.8 52.0933 146.855 51.7459 146.964 51.3803L160.62 18.5836C160.913 17.8524 161.352 17.2856 161.937 16.8834C162.558 16.4813 163.216 16.3167 163.911 16.3899C164.569 16.3899 165.172 16.5909 165.721 16.9931C166.306 17.3588 166.726 17.8889 166.982 18.5836L180.474 50.7222C180.657 51.1975 180.748 51.6362 180.748 52.0384C180.748 53.0256 180.419 53.8117 179.761 54.3967C179.139 54.9817 178.445 55.2742 177.677 55.2742C177.019 55.2742 176.415 55.0731 175.867 54.6709C175.355 54.2687 174.953 53.7203 174.66 53.0256L162.869 25.5488L164.459 25.2197ZM154.313 46.3895L157.33 40.0824H172.138L173.18 46.3895H154.313ZM189.341 55C188.317 55 187.403 54.6892 186.598 54.0677C185.794 53.4095 185.392 52.6051 185.392 51.6545V19.9547C185.392 19.0041 185.703 18.218 186.324 17.5964C186.982 16.9383 187.787 16.6092 188.737 16.6092H204.532C206.434 16.6092 208.207 17.1211 209.852 18.1449C211.534 19.1321 212.887 20.5214 213.911 22.313C214.934 24.068 215.446 26.0972 215.446 28.4007C215.446 29.7901 215.154 31.1429 214.569 32.4591C214.02 33.7754 213.253 34.9637 212.265 36.024C211.315 37.0843 210.236 37.907 209.03 38.492L209.084 37.2306C210.108 37.779 210.949 38.4371 211.607 39.2049C212.302 39.9362 212.832 40.7406 213.198 41.6181C213.6 42.459 213.838 43.3731 213.911 44.3603C214.057 45.2743 214.148 46.0787 214.185 46.7734C214.258 47.4681 214.368 48.0531 214.514 48.5284C214.697 49.0037 215.026 49.3694 215.501 49.6253C216.306 50.1006 216.799 50.7953 216.982 51.7094C217.201 52.5869 217 53.373 216.379 54.0677C215.976 54.543 215.465 54.8537 214.843 55C214.221 55.1097 213.6 55.1097 212.978 55C212.357 54.8537 211.845 54.6709 211.443 54.4516C210.821 54.0859 210.2 53.5558 209.578 52.8611C208.956 52.1298 208.445 51.1609 208.042 49.9544C207.677 48.7478 207.494 47.1939 207.494 45.2926C207.494 44.6711 207.384 44.1043 207.165 43.5925C206.946 43.044 206.635 42.587 206.233 42.2214C205.83 41.8192 205.318 41.5267 204.697 41.3439C204.075 41.1245 203.344 41.0148 202.503 41.0148H191.425L192.247 39.7534V51.6545C192.247 52.6051 191.991 53.4095 191.48 54.0677C190.968 54.6892 190.255 55 189.341 55ZM191.48 35.3659H204.258C204.916 35.3659 205.556 35.0734 206.178 34.4884C206.799 33.8668 207.311 33.0441 207.713 32.0204C208.116 30.9601 208.317 29.8083 208.317 28.5652C208.317 26.9565 207.878 25.6219 207 24.5616C206.159 23.4647 205.245 22.9163 204.258 22.9163H191.589L192.247 21.1613V36.6821L191.48 35.3659ZM226.389 16.6092H244.762C245.712 16.6092 246.498 16.92 247.12 17.5416C247.778 18.1266 248.107 18.8944 248.107 19.845C248.107 20.7591 247.778 21.5086 247.12 22.0936C246.498 22.6421 245.712 22.9163 244.762 22.9163H229.405L229.899 21.9839V32.6785L229.46 32.2398H242.294C243.244 32.2398 244.03 32.5505 244.652 33.1721C245.31 33.7571 245.639 34.5249 245.639 35.4756C245.639 36.3896 245.31 37.1392 244.652 37.7242C244.03 38.2726 243.244 38.5468 242.294 38.5468H229.625L229.899 38.1081V49.1865L229.46 48.6929H244.762C245.712 48.6929 246.498 49.022 247.12 49.6801C247.778 50.3017 248.107 51.033 248.107 51.8739C248.107 52.788 247.778 53.5375 247.12 54.1225C246.498 54.7075 245.712 55 244.762 55H226.389C225.438 55 224.634 54.6892 223.976 54.0677C223.354 53.4095 223.044 52.6051 223.044 51.6545V19.9547C223.044 19.0041 223.354 18.218 223.976 17.5964C224.634 16.9383 225.438 16.6092 226.389 16.6092ZM283.551 16.6092C284.428 16.6092 285.141 16.9017 285.69 17.4867C286.238 18.0717 286.513 18.803 286.513 19.6805V51.6545C286.513 52.6051 286.183 53.4095 285.525 54.0677C284.904 54.6892 284.118 55 283.167 55C282.692 55 282.198 54.9269 281.686 54.7806C281.211 54.5978 280.845 54.3602 280.589 54.0677L259.036 26.7005L260.462 25.823V51.9287C260.462 52.8062 260.169 53.5375 259.584 54.1225C259.036 54.7075 258.304 55 257.39 55C256.513 55 255.8 54.7075 255.251 54.1225C254.703 53.5375 254.429 52.8062 254.429 51.9287V19.9547C254.429 19.0041 254.74 18.218 255.361 17.5964C256.019 16.9383 256.824 16.6092 257.774 16.6092C258.286 16.6092 258.816 16.7189 259.365 16.9383C259.913 17.1211 260.315 17.4136 260.571 17.8158L281.467 44.47L280.535 45.1281V19.6805C280.535 18.803 280.809 18.0717 281.357 17.4867C281.906 16.9017 282.637 16.6092 283.551 16.6092ZM308.853 25.2197L297.007 53.0805C296.751 53.7752 296.349 54.3236 295.8 54.7258C295.289 55.0914 294.722 55.2742 294.1 55.2742C293.113 55.2742 292.382 55 291.907 54.4516C291.431 53.9031 291.194 53.2267 291.194 52.4223C291.194 52.0933 291.248 51.7459 291.358 51.3803L305.014 18.5836C305.307 17.8524 305.745 17.2856 306.33 16.8834C306.952 16.4813 307.61 16.3167 308.305 16.3899C308.963 16.3899 309.566 16.5909 310.115 16.9931C310.7 17.3588 311.12 17.8889 311.376 18.5836L324.868 50.7222C325.051 51.1975 325.142 51.6362 325.142 52.0384C325.142 53.0256 324.813 53.8117 324.155 54.3967C323.533 54.9817 322.839 55.2742 322.071 55.2742C321.413 55.2742 320.809 55.0731 320.261 54.6709C319.749 54.2687 319.347 53.7203 319.054 53.0256L307.263 25.5488L308.853 25.2197ZM298.707 46.3895L301.724 40.0824H316.531L317.573 46.3895H298.707Z" fill="black"/>
<path d="M117.399 87.1034V73.0853H122.256C123.756 73.0853 125.007 73.4012 126.007 74.033C127.021 74.6516 127.778 75.494 128.278 76.5602C128.778 77.6132 129.028 78.7847 129.028 80.0746C129.028 81.4961 128.752 82.7334 128.199 83.7864C127.646 84.8394 126.863 85.6555 125.849 86.2347C124.836 86.8138 123.638 87.1034 122.256 87.1034H117.399ZM127.231 80.0746C127.231 79.0216 127.034 78.087 126.639 77.271C126.257 76.4549 125.698 75.8165 124.961 75.3558C124.224 74.8951 123.322 74.6648 122.256 74.6648H119.176V85.5239H122.256C123.335 85.5239 124.243 85.287 124.981 84.8131C125.718 84.3261 126.277 83.6745 126.659 82.8585C127.04 82.0292 127.231 81.1013 127.231 80.0746ZM150.92 85.5239V87.1034H141.404V73.0853H150.743V74.6648H143.181V79.2059H149.756V80.6867H143.181V85.5239H150.92ZM171.463 76.0271C171.305 75.8428 171.095 75.6651 170.831 75.494C170.568 75.3229 170.272 75.1715 169.943 75.0399C169.614 74.8951 169.252 74.7832 168.857 74.7043C168.475 74.6121 168.074 74.5661 167.653 74.5661C166.573 74.5661 165.777 74.7701 165.264 75.1781C164.75 75.5862 164.494 76.1456 164.494 76.8563C164.494 77.3565 164.625 77.7514 164.889 78.041C165.152 78.3306 165.553 78.5675 166.093 78.7518C166.646 78.936 167.343 79.1269 168.186 79.3243C169.16 79.5349 170.002 79.7916 170.713 80.0943C171.424 80.3971 171.97 80.8051 172.352 81.3185C172.733 81.8186 172.924 82.4899 172.924 83.3323C172.924 84.0036 172.793 84.5893 172.529 85.0895C172.279 85.5765 171.924 85.9846 171.463 86.3136C171.003 86.6295 170.463 86.8665 169.844 87.0244C169.226 87.1692 168.554 87.2416 167.83 87.2416C167.12 87.2416 166.422 87.1692 165.738 87.0244C165.066 86.8665 164.428 86.6427 163.822 86.3531C163.217 86.0636 162.651 85.7016 162.124 85.2672L162.973 83.7667C163.184 83.9905 163.454 84.2142 163.783 84.438C164.125 84.6486 164.507 84.846 164.928 85.0303C165.362 85.2146 165.83 85.3659 166.33 85.4844C166.83 85.5897 167.343 85.6424 167.87 85.6424C168.87 85.6424 169.647 85.4647 170.2 85.1093C170.752 84.7407 171.029 84.2076 171.029 83.51C171.029 82.9835 170.871 82.5623 170.555 82.2464C170.252 81.9305 169.798 81.6673 169.193 81.4567C168.587 81.2461 167.85 81.0355 166.981 80.8249C166.034 80.5879 165.237 80.3313 164.592 80.0548C163.947 79.7653 163.46 79.3901 163.131 78.9294C162.815 78.4688 162.657 77.8699 162.657 77.1328C162.657 76.2377 162.875 75.4809 163.309 74.8622C163.743 74.2436 164.342 73.7763 165.106 73.4604C165.869 73.1445 166.731 72.9866 167.692 72.9866C168.324 72.9866 168.91 73.0524 169.449 73.184C170.002 73.3156 170.516 73.4999 170.989 73.7368C171.463 73.9737 171.898 74.2567 172.292 74.5858L171.463 76.0271ZM185.133 87.1034V73.0853H186.91V87.1034H185.133ZM205.761 87.2021C204.84 87.2021 203.978 87.0047 203.175 86.6098C202.385 86.2018 201.694 85.6621 201.101 84.9908C200.509 84.3064 200.048 83.5429 199.719 82.7005C199.39 81.845 199.226 80.9631 199.226 80.0548C199.226 79.1071 199.39 78.2121 199.719 77.3697C200.048 76.5141 200.503 75.7573 201.082 75.0991C201.674 74.441 202.365 73.9277 203.155 73.5591C203.958 73.1774 204.826 72.9866 205.761 72.9866C207.117 72.9866 208.236 73.2696 209.117 73.8355C209.999 74.4015 210.664 75.1386 211.112 76.0469L209.749 76.9946C209.341 76.1785 208.782 75.573 208.071 75.1781C207.36 74.7832 206.577 74.5858 205.722 74.5858C205.011 74.5858 204.366 74.7372 203.787 75.0399C203.207 75.3427 202.707 75.7573 202.286 76.2838C201.878 76.7971 201.562 77.3829 201.338 78.041C201.128 78.6991 201.023 79.3836 201.023 80.0943C201.023 80.8446 201.141 81.5554 201.378 82.2267C201.628 82.8848 201.977 83.4705 202.424 83.9839C202.872 84.484 203.392 84.8789 203.984 85.1685C204.576 85.4581 205.215 85.6029 205.899 85.6029C206.702 85.6029 207.466 85.3988 208.19 84.9908C208.913 84.5828 209.598 83.9575 210.243 83.1151V84.9513C208.979 86.4518 207.485 87.2021 205.761 87.2021ZM210.026 81.4567H207.005V80.1141H211.526V87.1034H210.026V81.4567ZM225.877 76.3628V87.1034H224.1V73.0853H225.601L234.17 84.0431V73.105H235.947V87.1034H234.328L225.877 76.3628Z" fill="black"/>
<line opacity="0.5" x1="117.366" y1="62.9334" x2="334" y2="62.9334" stroke="black" stroke-width="0.822659"/>
<line opacity="0.5" x1="95.9769" y1="7.6781" x2="95.9769" y2="95.4284" stroke="black" stroke-width="1.09688"/>
<path d="M3.29065 38.7372C3.29065 25.8243 13.7586 15.3563 26.6715 15.3563H53.9491C66.862 15.3563 77.33 25.8243 77.33 38.7372V66.0148C77.33 78.9277 66.862 89.3957 53.9491 89.3957H26.6715C13.7586 89.3957 3.29065 78.9277 3.29065 66.0148V38.7372Z" fill="black"/>
<path d="M62.5221 25.8776C62.5221 28.819 60.1377 31.2034 57.1964 31.2034C54.2551 31.2034 51.8706 28.819 51.8706 25.8776C51.8706 22.9363 54.2551 20.5519 57.1964 20.5519C60.1377 20.5519 62.5221 22.9363 62.5221 25.8776Z" fill="black" stroke="white" stroke-width="0.779361"/>
<path d="M31.2611 27.422C31.2611 29.2393 29.7878 30.7126 27.9704 30.7126C26.1531 30.7126 24.6798 29.2393 24.6798 27.422C24.6798 25.6046 26.1531 24.1313 27.9704 24.1313C29.7878 24.1313 31.2611 25.6046 31.2611 27.422Z" fill="black" stroke="white" stroke-width="0.779361"/>
<path d="M46.3001 51.9431C46.3001 54.8844 43.9157 57.2688 40.9743 57.2688C38.033 57.2688 35.6486 54.8844 35.6486 51.9431C35.6486 49.0017 38.033 46.6173 40.9743 46.6173C43.9157 46.6173 46.3001 49.0017 46.3001 51.9431Z" fill="black" stroke="white" stroke-width="0.779361"/>
<path d="M56.4894 77.0557C56.4894 79.0245 54.8933 80.6206 52.9245 80.6206C50.9557 80.6206 49.3596 79.0245 49.3596 77.0557C49.3596 75.0869 50.9557 73.4909 52.9245 73.4909C54.8933 73.4909 56.4894 75.0869 56.4894 77.0557Z" fill="black" stroke="white" stroke-width="0.779361"/>
<path d="M57.1522 22.5712C58.937 22.5712 60.3844 24.0179 60.3846 25.8026C60.3846 27.5875 58.9371 29.035 57.1522 29.035C55.3675 29.0348 53.9208 27.5874 53.9208 25.8026C53.921 24.0181 55.3677 22.5714 57.1522 22.5712Z" fill="white" stroke="black" stroke-width="0.779361"/>
<circle cx="23.9437" cy="78.8743" r="5.84521" transform="rotate(180 23.9437 78.8743)" fill="black" stroke="white" stroke-width="0.779361"/>
<path d="M20.4367 78.9887C20.4367 76.9886 22.0581 75.3672 24.0582 75.3672C26.0583 75.3672 27.6797 76.9886 27.6797 78.9887C27.6797 80.9888 26.0583 82.6102 24.0582 82.6102C22.0581 82.6102 20.4367 80.9888 20.4367 78.9887Z" fill="white"/>
<circle cx="24.0081" cy="43.5456" r="3.05667" fill="white"/>
<circle cx="41.133" cy="52.1017" r="2.19376" fill="white"/>
<path d="M29.9695 27.422C29.9695 28.4821 29.1101 29.3415 28.0499 29.3415C26.9898 29.3415 26.1304 28.4821 26.1304 27.422C26.1304 26.3618 26.9898 25.5024 28.0499 25.5024C29.1101 25.5024 29.9695 26.3618 29.9695 27.422Z" fill="white"/>
<path d="M60.009 61.5459C60.009 63.2341 58.6405 64.6026 56.9523 64.6026C55.2641 64.6026 53.8956 63.2341 53.8956 61.5459C53.8956 59.8578 55.2641 58.4893 56.9523 58.4893C58.6405 58.4893 60.009 59.8578 60.009 61.5459Z" fill="white"/>
<circle cx="64.1536" cy="30.2369" r="0.852119" fill="white"/>
<path d="M21.458 37.9578C21.458 38.4284 21.0765 38.8099 20.6059 38.8099C20.1353 38.8099 19.7538 38.4284 19.7538 37.9578C19.7538 37.4872 20.1353 37.1057 20.6059 37.1057C21.0765 37.1057 21.458 37.4872 21.458 37.9578Z" fill="white"/>
<circle cx="12.9914" cy="72.2691" r="0.852119" fill="white"/>
<circle cx="52.9244" cy="77.0558" r="1.91954" fill="white"/>
<path d="M31.2468 26.8953L51.741 26.0283" stroke="white" stroke-width="1.55872"/>
<line x1="27.0835" y1="30.3439" x2="24.3126" y2="42.0344" stroke="white" stroke-width="1.55872"/>
<line x1="25.9112" y1="44.9603" x2="36.5176" y2="49.746" stroke="white" stroke-width="1.55872"/>
<line x1="45.3701" y1="54.7223" x2="55.1869" y2="60.555" stroke="white" stroke-width="1.55872"/>
<line x1="57.0451" y1="63.0792" x2="54.505" y2="73.6727" stroke="white" stroke-width="1.55872"/>
<line x1="29.8549" y1="78.6817" x2="49.3183" y2="77.6486" stroke="white" stroke-width="1.55872"/>
</svg>
